<?xml version="1.0" encoding="utf-8"?><svg xmlns="http://www.w3.org/2000/svg" xmlns:xlink="http://www.w3.org/1999/xlink"><symbol viewBox="0 0 32 32" id="drawingActionDelete" xmlns="http://www.w3.org/2000/svg"><path fill-rule="evenodd" d="M13.5 7c0-.3.2-.5.5-.5h4c.3 0 .5.2.5.5v1.5h-5V7Zm6 0v1.5H24a.5.5 0 0 1 0 1h-.5l-.9 13.7c0 1.3-1.2 2.3-2.5 2.3H12c-1.3 0-2.4-1-2.5-2.3l-1-13.7H8a.5.5 0 0 1 0-1h4.5V7c0-.8.7-1.5 1.5-1.5h4c.8 0 1.5.7 1.5 1.5Zm-10 2.5h13l-.9 13.6c0 .8-.7 1.4-1.5 1.4H12c-.8 0-1.5-.6-1.5-1.4l-1-13.6Zm7 4a.5.5 0 0 0-1 0v7a.5.5 0 0 0 1 0v-7ZM19 13c.3 0 .5.2.5.5v7a.5.5 0 0 1-1 0v-7c0-.3.2-.5.5-.5Zm-5.5.5a.5.5 0 0 0-1 0v7a.5.5 0 0 0 1 0v-7Z"/></symbol><symbol viewBox="0 0 32 32" id="drawingSettingAutosaveOff" xmlns="http://www.w3.org/2000/svg"><path fill-rule="evenodd" d="M13.146 15.146a.5.5 0 0 1 .708 0L16 17.293l2.146-2.147a.5.5 0 0 1 .708.708L16.707 18l2.147 2.146a.5.5 0 0 1-.708.708L16 18.707l-2.146 2.147a.5.5 0 0 1-.708-.708L15.293 18l-2.147-2.146a.5.5 0 0 1 0-.708zm-4.1-.952a7.001 7.001 0 0 1 13.415-1.893A6.502 6.502 0 0 1 20.5 25h-10a5.5 5.5 0 0 1-1.454-10.806zM10 15a6 6 0 0 1 11.703-1.868A5.5 5.5 0 0 1 20.5 24h-10a4.5 4.5 0 0 1-.5-8.973V15z"/></symbol><symbol viewBox="0 0 32 32" id="drawingSettingAutosaveOn" xmlns="http://www.w3.org/2000/svg"><path fill-rule="evenodd" d="M19.854 15.854a.5.5 0 0 0-.708-.708L15 19.293l-2.146-2.147a.5.5 0 0 0-.708.708l2.5 2.5a.5.5 0 0 0 .708 0l4.5-4.5zM16 8a7.001 7.001 0 0 0-6.954 6.194A5.502 5.502 0 0 0 10.5 25h10a6.5 6.5 0 0 0 1.96-12.699A7.001 7.001 0 0 0 16 8zm0 1a6 6 0 0 0-6 6v.027A4.5 4.5 0 0 0 10.5 24h10a5.5 5.5 0 0 0 1.203-10.868A6.003 6.003 0 0 0 16 9z"/></symbol><symbol viewBox="0 0 32 32" id="drawingSettingAutosaveSaving" xmlns="http://www.w3.org/2000/svg"><path fill-rule="evenodd" d="M10 15a6 6 0 0 1 11.703-1.868A5.5 5.5 0 0 1 20.5 24h-10a4.5 4.5 0 0 1-.5-8.973V15zm-.954-.806a7.001 7.001 0 0 1 13.415-1.893A6.502 6.502 0 0 1 20.5 25h-10a5.5 5.5 0 0 1-1.454-10.806z"/></symbol><symbol viewBox="0 0 32 32" id="drawingSettingDrawingMode" xmlns="http://www.w3.org/2000/svg"><path fill="#868ea5" d="M25 6.5c.28 0 .5.22.5.5a9.5 9.5 0 0 1-8.26 9.42 1.31 1.31 0 0 0-.06-1A8.5 8.5 0 0 0 24.5 7c0-.28.22-.5.5-.5Zm-10.24 9.08A9.5 9.5 0 0 0 6.5 25a.5.5 0 0 0 1 0 8.5 8.5 0 0 1 7.32-8.42 1.3 1.3 0 0 1-.06-1Z"/><path fill-rule="evenodd" d="M8.94 16.5a2 2 0 1 1 0-1h5.12a2 2 0 0 1 3.88 0h5.12a2 2 0 1 1 0 1h-5.12a2 2 0 0 1-3.88 0H8.94ZM8 16a1 1 0 1 1-2 0 1 1 0 0 1 2 0Zm9 0a1 1 0 1 1-2 0 1 1 0 0 1 2 0Zm9 0a1 1 0 1 1-2 0 1 1 0 0 1 2 0Z"/></symbol><symbol viewBox="0 0 32 32" id="drawingSettingDrawingModeActive" xmlns="http://www.w3.org/2000/svg"><path fill="#00a449" d="M25 6.5c.28 0 .5.22.5.5a9.5 9.5 0 0 1-8.26 9.42 1.31 1.31 0 0 0-.06-1A8.5 8.5 0 0 0 24.5 7c0-.28.22-.5.5-.5Zm-10.24 9.08A9.5 9.5 0 0 0 6.5 25a.5.5 0 0 0 1 0 8.5 8.5 0 0 1 7.32-8.42 1.3 1.3 0 0 1-.06-1Z"/><path fill-rule="evenodd" d="M8.94 16.5a2 2 0 1 1 0-1h5.12a2 2 0 0 1 3.88 0h5.12a2 2 0 1 1 0 1h-5.12a2 2 0 0 1-3.88 0H8.94ZM8 16a1 1 0 1 1-2 0 1 1 0 0 1 2 0Zm9 0a1 1 0 1 1-2 0 1 1 0 0 1 2 0Zm9 0a1 1 0 1 1-2 0 1 1 0 0 1 2 0Z"/><circle fill="#00a449" cx="25" cy="24" r="5"/><path fill-rule="evenodd" fill="#fff" d="M27.8 21.6a.5.5 0 0 1 .1.7l-3.13 4a.5.5 0 0 1-.76.04l-1.87-2a.5.5 0 0 1 .72-.68l1.48 1.57 2.77-3.54a.5.5 0 0 1 .7-.08Z"/></symbol><symbol viewBox="0 0 32 32" id="drawingSettingHide" xmlns="http://www.w3.org/2000/svg"><path fill-rule="evenodd" d="m7.2 16.8-.6-.8a19.8 19.8 0 0 1 2.7-3.1C11 11 13.4 9.5 16 9.5c2.6 0 5 1.6 6.7 3.4a22 22 0 0 1 2.7 3v.1a19.9 19.9 0 0 1-2.7 3.1C21 21 18.6 22.5 16 22.5c-2.6 0-5-1.6-6.7-3.4a22 22 0 0 1-2.1-2.3Zm19.2-1-.4.2.4.3a5.3 5.3 0 0 1-.2.3 20.8 20.8 0 0 1-2.8 3.3c-1.8 1.7-4.4 3.6-7.4 3.6s-5.6-1.9-7.4-3.6a23 23 0 0 1-3-3.6L6 16l-.4-.3a7.3 7.3 0 0 1 .2-.3 20.8 20.8 0 0 1 2.8-3.3c1.8-1.7 4.4-3.6 7.4-3.6s5.6 1.9 7.4 3.6a23 23 0 0 1 3 3.6Zm-.4.2.4-.3.2.3-.2.3-.4-.3Zm-20.4-.3.4.3-.4.3-.2-.3.2-.3Zm7.9.3a2.5 2.5 0 1 1 5 0 2.5 2.5 0 0 1-5 0Zm2.5-3.5a3.5 3.5 0 1 0 0 7 3.5 3.5 0 0 0 0-7Z"/></symbol><symbol viewBox="0 0 32 32" id="drawingSettingLock" xmlns="http://www.w3.org/2000/svg"><path fill-rule="evenodd" d="M15 5.5A2.5 2.5 0 0 0 12.5 8v4.5H10A2.5 2.5 0 0 0 7.5 15v8c0 1.4 1.1 2.5 2.5 2.5h12c1.4 0 2.5-1.1 2.5-2.5v-8c0-1.4-1.1-2.5-2.5-2.5h-8.5V8c0-.8.7-1.5 1.5-1.5h2c.8 0 1.5.7 1.5 1.5v1a.5.5 0 0 0 1 0V8c0-1.4-1.1-2.5-2.5-2.5h-2Zm-5 8c-.8 0-1.5.7-1.5 1.5v8c0 .8.7 1.5 1.5 1.5h12c.8 0 1.5-.7 1.5-1.5v-8c0-.8-.7-1.5-1.5-1.5H10Zm4.5 4.5a1.5 1.5 0 0 1 3 0v2a1.5 1.5 0 0 1-3 0v-2Zm1.5-.5c-.3 0-.5.2-.5.5v2a.5.5 0 0 0 1 0v-2c0-.3-.2-.5-.5-.5Z"/></symbol><symbol viewBox="0 0 32 32" id="drawingSettingPreserveDrawings" xmlns="http://www.w3.org/2000/svg"><path d="M8 7.5c-.3 0-.5.2-.5.5v16c0 .3.2.5.5.5h16c.3 0 .5-.2.5-.5v-6a.5.5 0 0 0-1 0v5.5h-15v-15H14a.5.5 0 0 0 0-1H8Zm10.5.5c0 .3.2.5.5.5h3.8l-8.3 8.3V13a.5.5 0 0 0-1 0v5c0 .3.2.5.5.5h5a.5.5 0 0 0 0-1h-3.8l8.3-8.3V13a.5.5 0 0 0 1 0V8c0-.3-.2-.5-.5-.5h-5c-.3 0-.5.2-.5.5Z"/></symbol><symbol viewBox="0 0 32 32" id="drawingSettingPreserveDrawingsActive" xmlns="http://www.w3.org/2000/svg"><path d="M7.5 8c0-.28.22-.5.5-.5h6a.5.5 0 0 1 0 1H8.5v15h10.69c-.08.32-.14.66-.17 1H8a.5.5 0 0 1-.5-.5V8Zm17 11.02c-.34.03-.68.09-1 .17V18a.5.5 0 0 1 1 0v1.02ZM18.5 8c0 .28.22.5.5.5h3.8l-8.3 8.3V13a.5.5 0 0 0-1 0v5c0 .28.22.5.5.5h5a.5.5 0 0 0 0-1h-3.8l8.3-8.3V13a.5.5 0 0 0 1 0V8a.5.5 0 0 0-.5-.5h-5a.5.5 0 0 0-.5.5Z"/><circle fill="#00a449" cx="25" cy="25" r="5"/><path fill="#fff" d="M27.8 22.6a.5.5 0 0 1 .1.7l-3.13 4a.5.5 0 0 1-.76.04l-1.87-2a.5.5 0 0 1 .72-.68l1.48 1.57 2.77-3.54a.5.5 0 0 1 .7-.08Z"/></symbol><symbol viewBox="0 0 32 32" id="drawingSettingShow" xmlns="http://www.w3.org/2000/svg"><path fill-rule="evenodd" d="M7.9 23.4 23.4 8l.7.7L8.6 24l-.7-.7Zm7-4.1a3.5 3.5 0 0 0 4.4-4.5l-.8.8v.4a2.5 2.5 0 0 1-2.9 2.5l-.8.8Zm1.5-5.8H16a2.5 2.5 0 0 0-2.5 2.9l-.8.8a3.5 3.5 0 0 1 4.5-4.5l-.8.8Zm-.4 10c-1.5 0-3-.5-4.2-1.2l.7-.7c1.1.5 2.3.9 3.5.9 2.6 0 5-1.6 6.7-3.4a22 22 0 0 0 2.7-3V16a19.9 19.9 0 0 0-3.4-3.8l.7-.7a19.3 19.3 0 0 1 3.7 4.2l-.4.3.4.3a5.3 5.3 0 0 1-.2.3 20.8 20.8 0 0 1-2.8 3.3c-1.8 1.7-4.4 3.6-7.4 3.6ZM26 16l.4-.3.2.3-.2.3-.4-.3ZM16 9.5c1.2 0 2.4.4 3.5 1l.7-.8A8.6 8.6 0 0 0 16 8.5c-3 0-5.6 1.9-7.4 3.6a23 23 0 0 0-3 3.6l.4.3-.4-.3-.2.3.2.3.4-.3-.4.3a7.3 7.3 0 0 0 .2.3 20.8 20.8 0 0 0 3.5 4l.7-.8A18.2 18.2 0 0 1 6.6 16a19.8 19.8 0 0 1 2.7-3.1C11 11 13.4 9.5 16 9.5Z"/></symbol><symbol viewBox="0 0 32 32" id="drawingSettingUnlock" xmlns="http://www.w3.org/2000/svg"><path fill-rule="evenodd" d="M15 6.5A2.5 2.5 0 0 0 12.5 9v3.5H10A2.5 2.5 0 0 0 7.5 15v8c0 1.4 1.1 2.5 2.5 2.5h12c1.4 0 2.5-1.1 2.5-2.5v-8c0-1.4-1.1-2.5-2.5-2.5h-2.5V9c0-1.4-1.1-2.5-2.5-2.5h-2Zm3.5 6V9c0-.8-.7-1.5-1.5-1.5h-2c-.8 0-1.5.7-1.5 1.5v3.5h5Zm-8.5 1c-.8 0-1.5.7-1.5 1.5v8c0 .8.7 1.5 1.5 1.5h12c.8 0 1.5-.7 1.5-1.5v-8c0-.8-.7-1.5-1.5-1.5H10Zm4.5 4.5a1.5 1.5 0 0 1 3 0v2a1.5 1.5 0 0 1-3 0v-2Zm1.5-.5c-.3 0-.5.2-.5.5v2a.5.5 0 0 0 1 0v-2c0-.3-.2-.5-.5-.5Z"/></symbol><symbol viewBox="0 0 32 32" id="toolArrow" xmlns="http://www.w3.org/2000/svg"><path d="M24.5 7.8a.5.5 0 0 0-.5-.3h-7a.5.5 0 0 0 0 1h5.8L7.6 23.6a.5.5 0 0 0 .8.8L23.5 9.2V15a.5.5 0 0 0 1 0V7.8z"/></symbol><symbol viewBox="0 0 32 32" id="toolBrush" xmlns="http://www.w3.org/2000/svg"><path fill-rule="evenodd" d="M11.66 15.5h.63c.34.07.66.24.9.5L16 18.82c.23.22.43.54.48.91v.6c0 1.28-.5 2.5-1.4 3.42h-.01a8.9 8.9 0 0 1-6.77 2.48c-.8 0-1.58-.26-2.22-.76l-.02-.02-.03-.02a1.04 1.04 0 0 1-.11-1.31 5.9 5.9 0 0 0 .87-3.27v-.06c.08-1.24.17-2.61 1.45-3.88.9-.9 2.13-1.41 3.41-1.41zm.47 1h-.47c-1.01 0-1.99.4-2.7 1.12-1 1-1.08 2.02-1.16 3.29a6.87 6.87 0 0 1-1.04 3.77.04.04 0 0 0-.01.03c.45.34 1 .52 1.58.52h.03a7.9 7.9 0 0 0 6.02-2.19 3.86 3.86 0 0 0 1.11-2.71v-.5a.57.57 0 0 0-.17-.29l-2.85-2.85a.69.69 0 0 0-.34-.2zm11.53-9.74a.04.04 0 0 0-.06 0l-8.82 8.11a.04.04 0 0 0 0 .06l2.28 2.27a.04.04 0 0 0 .05 0l8.12-8.81a.04.04 0 0 0 0-.06h-.01l-1.56-1.57zm-.74-.73c.4-.38 1.03-.37 1.43 0v.02l1.56 1.54a1.04 1.04 0 0 1 .05 1.49l-8.12 8.81a1.04 1.04 0 0 1-1.5 0l-2.26-2.25a1.04 1.04 0 0 1 0-1.5h.02l8.82-8.1z"/></symbol><symbol viewBox="0 0 32 32" id="toolCallout" xmlns="http://www.w3.org/2000/svg"><path d="M11 13.5c0-.3.2-.5.5-.5h9a.5.5 0 0 1 0 1h-9a.5.5 0 0 1-.5-.5Zm.5 2.5a.5.5 0 0 0 0 1h5a.5.5 0 0 0 0-1h-5Zm-5-5c0-2 1.6-3.5 3.5-3.5h12c2 0 3.5 1.6 3.5 3.5v7c0 2.5-2 4.5-4.5 4.5h-2.5c-.2 0-.3 0-.4.2l-1.7 2.1a.5.5 0 0 1-.8 0L14 22.7l-.4-.2H10c-2 0-3.5-1.6-3.5-3.5v-8ZM10 8.5A2.5 2.5 0 0 0 7.5 11v8c0 1.4 1.1 2.5 2.5 2.5h3.5c.5 0 1 .2 1.2.6l1.3 1.6 1.3-1.6c.3-.4.7-.6 1.2-.6H21c2 0 3.5-1.6 3.5-3.5v-7c0-1.4-1.1-2.5-2.5-2.5H10Z"/></symbol><symbol viewBox="0 0 32 32" id="toolCurve" xmlns="http://www.w3.org/2000/svg"><path fill-rule="evenodd" d="M17.87 11.7a2 2 0 0 1-3.74 0 8.54 8.54 0 0 0-6.42 6.43 2 2 0 1 1-1-.11 9.54 9.54 0 0 1 7.31-7.31 2 2 0 0 1 3.96 0 9.54 9.54 0 0 1 7.3 7.31 2 2 0 1 1-1 .11 8.54 8.54 0 0 0-6.4-6.42zM17 11a1 1 0 1 1-2 0 1 1 0 0 1 2 0zM7 21a1 1 0 1 0 0-2 1 1 0 0 0 0 2zm19-1a1 1 0 1 1-2 0 1 1 0 0 1 2 0z"/></symbol><symbol viewBox="0 0 32 32" id="toolElliottWave" xmlns="http://www.w3.org/2000/svg"><path fill-rule="evenodd" d="M26.12 6.48c0 .33-.28.6-.62.6a.6.6 0 1 1 0-1.2.6.6 0 0 1 .62.6zm-.09 6.06c0 .33-.21.55-.53.55-.32 0-.53-.22-.53-.55v-4.2c0-.35.21-.57.53-.57.32 0 .53.22.53.56v4.2zM11.67 15.1a2 2 0 1 0-3.08.31l-4.02 6.84a.5.5 0 1 0 .86.5l4.02-6.83a2 2 0 0 0 1.47-.15l6.41 7.12a2 2 0 1 0 3.08-.31l4.02-6.83a.5.5 0 0 0-.86-.5l-4.02 6.83a2 2 0 0 0-1.47.15l-6.41-7.12zM11 14a1 1 0 1 1-2 0 1 1 0 0 1 2 0zm8 11a1 1 0 1 0 0-2 1 1 0 0 0 0 2z"/></symbol><symbol viewBox="0 0 32 32" id="toolEllipse" xmlns="http://www.w3.org/2000/svg"><path fill-rule="evenodd" d="M17.97 8.65c4.79.74 8.53 4.12 8.53 8.35 0 4.8-4.81 8.5-10.5 8.5S5.5 21.8 5.5 17c0-4.23 3.74-7.61 8.53-8.35a2 2 0 0 1 3.94 0zM16 11a2 2 0 0 0 1.9-1.35c4.4.7 7.6 3.8 7.6 7.35 0 4.04-4.14 7.5-9.5 7.5S6.5 21.04 6.5 17c0-3.55 3.2-6.65 7.6-7.35A2 2 0 0 0 16 11zm1-2a1 1 0 1 1-2 0 1 1 0 0 1 2 0z"/></symbol><symbol viewBox="0 0 32 32" id="toolExpand" xmlns="http://www.w3.org/2000/svg"><path fill-rule="evenodd" d="M24.5 27.91a.3.3 0 0 1-.3-.29v-.16c0-.08.04-.16.1-.21l2.95-2.96a.29.29 0 0 1 .2-.08h.17a.3.3 0 0 1 .3.29v3.12a.28.28 0 0 1-.3.3H24.5Z"/></symbol><symbol viewBox="0 0 32 32" id="toolFibonacci" xmlns="http://www.w3.org/2000/svg"><path d="M4.5 8c0-.3.2-.5.5-.5h22a.5.5 0 0 1 0 1H5a.5.5 0 0 1-.5-.5zm0 16c0-.3.2-.5.5-.5h22a.5.5 0 0 1 0 1H5a.5.5 0 0 1-.5-.5zM5 11.5a.5.5 0 0 0 0 1h2a.5.5 0 0 0 0-1H5zM4.5 16c0-.3.2-.5.5-.5h2a.5.5 0 0 1 0 1H5a.5.5 0 0 1-.5-.5zm.5 3.5a.5.5 0 0 0 0 1h2a.5.5 0 0 0 0-1H5zM9.5 12c0-.3.2-.5.5-.5h2a.5.5 0 0 1 0 1h-2a.5.5 0 0 1-.5-.5zm.5 3.5a.5.5 0 0 0 0 1h2a.5.5 0 0 0 0-1h-2zM9.5 20c0-.3.2-.5.5-.5h2a.5.5 0 0 1 0 1h-2a.5.5 0 0 1-.5-.5zm5.5-8.5a.5.5 0 0 0 0 1h2a.5.5 0 0 0 0-1h-2zm-.5 4.5c0-.3.2-.5.5-.5h2a.5.5 0 0 1 0 1h-2a.5.5 0 0 1-.5-.5zm.5 3.5a.5.5 0 0 0 0 1h2a.5.5 0 0 0 0-1h-2zm4.5-7.5c0-.3.2-.5.5-.5h2a.5.5 0 0 1 0 1h-2a.5.5 0 0 1-.5-.5zm.5 3.5a.5.5 0 0 0 0 1h2a.5.5 0 0 0 0-1h-2zm-.5 4.5c0-.3.2-.5.5-.5h2a.5.5 0 0 1 0 1h-2a.5.5 0 0 1-.5-.5zm5.5-8.5a.5.5 0 0 0 0 1h2a.5.5 0 0 0 0-1h-2zm-.5 4.5c0-.3.2-.5.5-.5h2a.5.5 0 0 1 0 1h-2a.5.5 0 0 1-.5-.5zm.5 3.5a.5.5 0 0 0 0 1h2a.5.5 0 0 0 0-1h-2z"/></symbol><symbol viewBox="0 0 32 32" id="toolLine" xmlns="http://www.w3.org/2000/svg"><path d="M22 8a2 2 0 1 1 1 1.7L9.7 23c.2.3.3.6.3 1a2 2 0 1 1-1-1.7L22.3 9a2 2 0 0 1-.3-1zm2-1a1 1 0 1 0 0 2 1 1 0 0 0 0-2zM8 23a1 1 0 1 0 0 2 1 1 0 0 0 0-2z"/></symbol><symbol viewBox="0 0 32 32" id="toolMeasure" xmlns="http://www.w3.org/2000/svg"><path d="M4 11.5c-.3 0-.5.2-.5.5v8c0 .3.2.5.5.5h24c.3 0 .5-.2.5-.5v-8c0-.3-.2-.5-.5-.5H4zm2.5 1V14a.5.5 0 0 0 1 0v-1.5h2V16a.5.5 0 0 0 1 0v-3.5h2V14a.5.5 0 0 0 1 0v-1.5h2V16a.5.5 0 0 0 1 0v-3.5h2V14a.5.5 0 0 0 1 0v-1.5h2V16a.5.5 0 0 0 1 0v-3.5h2V14a.5.5 0 0 0 1 0v-1.5h2v7h-23v-7h2z"/></symbol><symbol viewBox="0 0 32 32" id="toolMidLineH" xmlns="http://www.w3.org/2000/svg"><path fill-rule="evenodd" d="M17.94 16.5a2 2 0 0 1-3.88 0 .5.5 0 0 1-.06 0H5a.5.5 0 0 1 0-1h9a.5.5 0 0 1 .06 0 2 2 0 0 1 3.88 0 .5.5 0 0 1 .06 0h9a.5.5 0 0 1 0 1h-9a.5.5 0 0 1-.06 0zM17 16a1 1 0 1 1-2 0 1 1 0 0 1 2 0z"/></symbol><symbol viewBox="0 0 32 32" id="toolMidLineV" xmlns="http://www.w3.org/2000/svg"><path fill-rule="evenodd" d="M15.5 14.06a.5.5 0 0 1 0-.06V5a.5.5 0 0 1 1 0v9a.5.5 0 0 1 0 .06 2 2 0 0 1 0 3.88.5.5 0 0 1 0 .06v9a.5.5 0 0 1-1 0v-9a.5.5 0 0 1 0-.06 2 2 0 0 1 0-3.88zM17 16a1 1 0 1 1-2 0 1 1 0 0 1 2 0z"/></symbol><symbol viewBox="0 0 32 32" id="toolMouse" xmlns="http://www.w3.org/2000/svg"><path d="m19 21-2.1-5 2.6.2c.6 0 .9-.6.5-1l-7-7c-.4-.5-1-.2-1 .3l-.1 9.9c0 .6.7.8 1 .4l1.7-1.9 2 5c.2.4.5.5.8.4l1.3-.5c.3-.1.5-.5.3-.8z"/></symbol><symbol viewBox="0 0 32 32" id="toolPitchfork" xmlns="http://www.w3.org/2000/svg"><path d="m10.35 14.65 7 7-.7.7-7-7 .7-.7zM11 23a2 2 0 1 1-4 0 2 2 0 0 1 4 0zm-2 1a1 1 0 1 0 0-2 1 1 0 0 0 0 2zm11-1a2 2 0 1 1-4 0 2 2 0 0 1 4 0zm-2 1a1 1 0 1 0 0-2 1 1 0 0 0 0 2zm-7-10a2 2 0 1 1-4 0 2 2 0 0 1 4 0zm-2 1a1 1 0 1 0 0-2 1 1 0 0 0 0 2zm13.24-4.54-11.89 11.9-.7-.71 11.88-11.9a.5.5 0 0 1 .71.71zm-4.52-4.47-7.37 7.36-.7-.7L17 5.28a.5.5 0 1 1 .7.71zm9 9-7.37 7.36-.7-.7L26 14.28a.5.5 0 1 1 .7.71z"/></symbol><symbol viewBox="0 0 32 32" id="toolPolygon" xmlns="http://www.w3.org/2000/svg"><path fill-rule="evenodd" d="M17.9 6.6a2 2 0 1 0-3.8.1l-6.8 4.8A2 2 0 1 0 6 15l2 7.3a2 2 0 1 0 2.9 2.4l8.1.6a2 2 0 1 0 3.3-1.8l4.3-8.5a2 2 0 0 0 2.4-2 2 2 0 0 0-3.4-1.5L18 6.6zm-.5.9a2 2 0 0 1-2.7 0l-6.8 4.8a2 2 0 0 1-1 2.4L9 22c1 0 1.8.7 2 1.7l8.1.6a2 2 0 0 1 2.3-1.3l4.3-8.5a2 2 0 0 1-.6-2.1l-7.7-5zM16 7a1 1 0 1 0 0-2 1 1 0 0 0 0 2zm11 7a1 1 0 1 0 0-2 1 1 0 0 0 0 2zm-6 12a1 1 0 1 0 0-2 1 1 0 0 0 0 2zM9 25a1 1 0 1 0 0-2 1 1 0 0 0 0 2zM6 14a1 1 0 1 0 0-2 1 1 0 0 0 0 2z"/></symbol><symbol viewBox="0 0 32 32" id="toolPosition" xmlns="http://www.w3.org/2000/svg"><path fill-rule="evenodd" d="M5 7.5c-.3 0-.5.2-.5.5v.8a.5.5 0 0 0 1 0v-.3h.6a.5.5 0 0 0 0-1H5zm4.4 0a.5.5 0 0 0 0 1h2.2a.5.5 0 0 0 0-1H9.4zm5.5 0a.5.5 0 0 0 0 1h2.2a.5.5 0 0 0 0-1h-2.2zm5.5 0a.5.5 0 0 0 0 1h2.2a.5.5 0 0 0 0-1h-2.2zm5.5 0a.5.5 0 0 0 0 1h.6v.3a.5.5 0 0 0 1 0V8c0-.3-.2-.5-.5-.5h-1.1zm1.6 3.7a.5.5 0 0 0-1 0v1.6a.5.5 0 0 0 1 0v-1.6zm-22 0a.5.5 0 0 0-1 0v1.6a.5.5 0 0 0 1 0v-1.6zm22 4a.5.5 0 0 0-1 0v.3h-21v-.3a.5.5 0 0 0-1 0V24c0 .3.2.5.5.5h22c.3 0 .5-.2.5-.5v-8.8zm-1 1.3h-21v7h21v-7z"/></symbol><symbol viewBox="0 0 32 32" id="toolRect" xmlns="http://www.w3.org/2000/svg"><path fill-rule="evenodd" d="M24.5 21.06V10.94a2 2 0 1 0-2.44-2.44H9.94a2 2 0 1 0-2.44 2.44v10.12a2 2 0 1 0 2.44 2.44h12.12a2 2 0 1 0 2.44-2.44zM9.94 9.5a2 2 0 0 1-1.44 1.44v10.12a2 2 0 0 1 1.44 1.44h12.12a2 2 0 0 1 1.44-1.44V10.94a2 2 0 0 1-1.44-1.44H9.94zM9 9a1 1 0 1 1-2 0 1 1 0 0 1 2 0zm15 1a1 1 0 1 0 0-2 1 1 0 0 0 0 2zM8 24a1 1 0 1 0 0-2 1 1 0 0 0 0 2zm17-1a1 1 0 1 1-2 0 1 1 0 0 1 2 0z"/></symbol><symbol viewBox="0 0 32 32" id="toolRectRotated" xmlns="http://www.w3.org/2000/svg"><path fill-rule="evenodd" d="M16 7c0 .4 0 .7-.3 1l8.3 8.3a2 2 0 1 1 .2 3.6l-4.4 4.3A2 2 0 0 1 18 27a2 2 0 0 1-1.7-3L8 15.7a2 2 0 1 1-.2-3.6l4.4-4.3A2 2 0 0 1 14 5a2 2 0 0 1 2 2zm7.4 12.2a2 2 0 0 1-.1-2.3l-8.2-8.2a2 2 0 0 1-2.3-.1l-4.2 4.2a2 2 0 0 1 .1 2.3l8.2 8.2a2 2 0 0 1 2.3.1l4.2-4.2zM14 8a1 1 0 1 0 0-2 1 1 0 0 0 0 2zm-6 6a1 1 0 1 1-2 0 1 1 0 0 1 2 0zm10 12a1 1 0 1 0 0-2 1 1 0 0 0 0 2zm8-8a1 1 0 1 1-2 0 1 1 0 0 1 2 0z"/></symbol><symbol viewBox="0 0 32 32" id="toolText" xmlns="http://www.w3.org/2000/svg"><path d="M8.72 21.1c.39 0 .58-.15.72-.55l.94-2.6h4.33l.94 2.6c.14.4.33.55.71.55.39 0 .64-.24.64-.6 0-.13-.02-.24-.08-.4l-3.44-9.14c-.17-.46-.47-.68-.94-.68-.45 0-.76.22-.92.67L8.2 20.11c-.06.16-.08.27-.08.4 0 .36.23.59.61.59zm2.02-4.25 1.78-4.93h.04l1.78 4.93h-3.6zm10.3 4.32c1.12 0 2.18-.62 2.63-1.57h.03v.97c0 .36.25.6.6.6.34 0 .6-.24.6-.63v-4.89c0-1.6-1.18-2.63-3.04-2.63-1.38 0-2.53.61-2.94 1.56-.08.18-.14.36-.14.5 0 .33.24.54.55.54.23 0 .4-.08.52-.29a2 2 0 0 1 1.98-1.24c1.14 0 1.83.63 1.83 1.66v.63l-2.37.13c-1.85.1-2.89.96-2.89 2.32 0 1.4 1.08 2.34 2.63 2.34zm.3-1.02c-1 0-1.67-.54-1.67-1.35 0-.77.62-1.3 1.77-1.37l2.22-.14v.78c0 1.16-1.04 2.08-2.33 2.08z"/></symbol><symbol viewBox="0 0 32 32" id="toolTriangle" xmlns="http://www.w3.org/2000/svg"><path fill-rule="evenodd" d="M17.4 10.4A2 2 0 0 0 16 7a2 2 0 0 0-1.4 3.4l-6 10.7a2 2 0 1 0 1.3 2.4h12.2a2 2 0 1 0 1.4-2.4l-6.1-10.7zm5.2 11.2-6-10.7a2 2 0 0 1-1.1 0L9.4 21.6c.3.2.4.5.5.9h12.2c0-.4.2-.7.5-1zM17 9a1 1 0 1 1-2 0 1 1 0 0 1 2 0zM8 24a1 1 0 1 0 0-2 1 1 0 0 0 0 2zm17-1a1 1 0 1 1-2 0 1 1 0 0 1 2 0z"/></symbol><symbol viewBox="0 0 32 32" id="toolXABCD" xmlns="http://www.w3.org/2000/svg"><path fill-rule="evenodd" d="M11 8a2 2 0 0 0 .42-.04l3.27 6.53a2 2 0 0 0-.46 2.43L7.1 23.33a2.02 2.02 0 0 0-.13-.08L10.99 8H11zM6.01 23l4.01-15.25a2 2 0 1 1 2.3-.24l3.26 6.53a2.01 2.01 0 0 1 1.56.32l4.06-3.48a2 2 0 1 1 2.46 1l.68 8.15a2 2 0 1 1-2.19 1.2l-4.9-3.67A2 2 0 0 1 16 18c-.4 0-.79-.12-1.1-.33l-7.13 6.4A2 2 0 1 1 6 23zm-.27 1.03a1 1 0 1 0 1.24.76 1 1 0 0 0-1.24-.75zm9.43-8.58a1 1 0 0 0 1.22 1.47 1 1 0 0 0 .6-.8 1 1 0 0 0-.93-1.12 1 1 0 0 0-.9.45zM12 6a1 1 0 1 1-2 0 1 1 0 0 1 2 0zm5.8 9.12 4.05-3.48c.24.17.51.28.81.33l.68 8.14a2 2 0 0 0-.59.33l-4.9-3.68a2 2 0 0 0-.05-1.64zm5.77-4.3A1 1 0 0 0 23 9a1 1 0 0 0-.98 1.18 1 1 0 0 0 1.55.64zM24 23a1 1 0 1 0 0-2 1 1 0 0 0 0 2z"/></symbol></svg>